<svg id="Layer_1" data-name="Layer 1" xmlns="http://www.w3.org/2000/svg" viewBox="0 0 954.9 161.18"><defs><style>.cls-1{fill:#fff;}.cls-2{fill:#bfa37c;}</style></defs><path class="cls-1" d="M385.09,159.27a2.65,2.65,0,0,1-2.71-3.24l9.38-51.88a4.08,4.08,0,0,1,3.88-3.23h41.57c8.55,0,14.24,6.81,12.72,15.21l-2.4,13.26A19.07,19.07,0,0,1,437,142.72a.7.7,0,0,0-.39.93l6.85,11.92a2.36,2.36,0,0,1-2.07,3.54c-5.73,0-9.28.18-11.62.15-4,.06-5.32-.11-6-1.56l-6.27-12.23a1.6,1.6,0,0,0-1.48-.86H402.68a.84.84,0,0,0-.78.65L400,156a4.08,4.08,0,0,1-3.87,3.23Zm19.7-29.92a.53.53,0,0,0,.54.65h21.52a3.64,3.64,0,0,0,3.45-2.88l1.58-8.73a2.37,2.37,0,0,0-2.42-2.89H408a.82.82,0,0,0-.77.66Z" transform="translate(-20.33 -75.65)"/><path class="cls-1" d="M454.22,159.26a2.65,2.65,0,0,1-2.7-3.24l1.58-8.79A4.09,4.09,0,0,1,457,144h36.59a2.45,2.45,0,0,0,2.33-1.94l.49-2.75a1.59,1.59,0,0,0-1.62-2H468.45c-8.55,0-14.24-6.8-12.72-15.21l1.08-5.94A19.19,19.19,0,0,1,475,101h38.9a2.65,2.65,0,0,1,2.71,3.25l-1.51,8.37a4.09,4.09,0,0,1-3.88,3.24h-35.6a2.46,2.46,0,0,0-2.33,1.94l-.66,3.67a1.59,1.59,0,0,0,1.62,2H500.6c8.54,0,14.24,6.81,12.73,15.21l-1,5.45a19.2,19.2,0,0,1-18.22,15.21h-39.9Z" transform="translate(-20.33 -75.65)"/><path class="cls-2" d="M580.54,101a2.65,2.65,0,0,1,2.65,1.88L593.14,139a.84.84,0,0,0,1.5.25l24.22-36.32a4.07,4.07,0,0,1,3.33-1.88h12.75a2.64,2.64,0,0,1,2.7,3.23L628.28,156a4.09,4.09,0,0,1-3.88,3.24h-9.93a2.65,2.65,0,0,1-2.71-3.24l3.75-20.72-14.78,22.07a4.08,4.08,0,0,1-3.32,1.89H584.25a2.64,2.64,0,0,1-2.64-1.89l-6.82-22L571.07,156a4.09,4.09,0,0,1-3.88,3.24h-9.93a2.65,2.65,0,0,1-2.71-3.24l9.36-51.8a4.09,4.09,0,0,1,3.88-3.23Z" transform="translate(-20.33 -75.65)"/><path class="cls-2" d="M708.52,116l-5.07,28.07a19.21,19.21,0,0,1-18.22,15.21H651.6c-8.55,0-14.25-6.81-12.74-15.21L643.94,116c1.51-8.4,9.68-15.21,18.22-15.21h33.63C704.34,100.78,710,107.59,708.52,116Zm-18,1.79a1.59,1.59,0,0,0-1.62-1.94H663.59a2.44,2.44,0,0,0-2.33,1.94l-4.4,24.28a1.6,1.6,0,0,0,1.63,1.94h25.33a2.45,2.45,0,0,0,2.33-1.94Z" transform="translate(-20.33 -75.65)"/><path class="cls-2" d="M772.77,104.2l-1.51,8.38a4.08,4.08,0,0,1-3.88,3.23H751.29a.82.82,0,0,0-.77.66L743.36,156a4.07,4.07,0,0,1-3.87,3.24h-11a2.65,2.65,0,0,1-2.71-3.24l7.15-39.56a.53.53,0,0,0-.54-.66H716.3a2.65,2.65,0,0,1-2.71-3.23l1.51-8.38A4.08,4.08,0,0,1,719,101h51.09A2.64,2.64,0,0,1,772.77,104.2Z" transform="translate(-20.33 -75.65)"/><path class="cls-2" d="M839.71,116l-5.07,28.07a19.2,19.2,0,0,1-18.22,15.21H782.78c-8.54,0-14.24-6.81-12.73-15.21L775.12,116a19.21,19.21,0,0,1,18.23-15.21H827C835.53,100.78,841.23,107.59,839.71,116Zm-18,1.79a1.59,1.59,0,0,0-1.62-1.94H794.77a2.46,2.46,0,0,0-2.33,1.94l-4.39,24.28a1.6,1.6,0,0,0,1.63,1.94H815a2.45,2.45,0,0,0,2.33-1.94Z" transform="translate(-20.33 -75.65)"/><path class="cls-2" d="M843.62,159.27a2.65,2.65,0,0,1-2.71-3.24l9.38-51.88a4.08,4.08,0,0,1,3.88-3.23h41.57c8.54,0,14.24,6.81,12.72,15.21l-2.4,13.26a19.07,19.07,0,0,1-10.52,13.33.7.7,0,0,0-.39.93L902,155.57a2.36,2.36,0,0,1-2.06,3.54c-5.73,0-9.29.18-11.63.15-4,.06-5.31-.11-6-1.56L876,145.47a1.6,1.6,0,0,0-1.48-.86H861.21a.82.82,0,0,0-.77.65l-2,10.77a4.08,4.08,0,0,1-3.88,3.23Zm19.7-29.92a.53.53,0,0,0,.54.65h21.52a3.64,3.64,0,0,0,3.45-2.88l1.58-8.73A2.37,2.37,0,0,0,888,115.5H866.48a.82.82,0,0,0-.77.66Z" transform="translate(-20.33 -75.65)"/><path class="cls-2" d="M912.75,159.26A2.66,2.66,0,0,1,910,156l1.59-8.79a4.09,4.09,0,0,1,3.88-3.24H952.1a2.45,2.45,0,0,0,2.33-1.94l.49-2.75a1.59,1.59,0,0,0-1.62-2H927c-8.54,0-14.24-6.8-12.72-15.21l1.07-5.94A19.2,19.2,0,0,1,933.55,101h38.91a2.66,2.66,0,0,1,2.72,3.25l-1.52,8.37a4.09,4.09,0,0,1-3.88,3.24H934.19a2.44,2.44,0,0,0-2.33,1.94l-.67,3.67a1.6,1.6,0,0,0,1.63,2h26.31c8.55,0,14.24,6.81,12.72,15.21l-1,5.45a19.21,19.21,0,0,1-18.22,15.21h-39.9Z" transform="translate(-20.33 -75.65)"/><path class="cls-1" d="M395.33,180.63a1.41,1.41,0,0,1,1.44,1.73l-5,27.73a2.18,2.18,0,0,1-2.07,1.73H383.8a1.41,1.41,0,0,1-1.45-1.73l5-27.73a2.2,2.2,0,0,1,2.08-1.73Z" transform="translate(-20.33 -75.65)"/><path class="cls-1" d="M424.05,194.46l-2.83,15.63a2.18,2.18,0,0,1-2.08,1.73H413.3a1.42,1.42,0,0,1-1.45-1.73l5-27.72a2.2,2.2,0,0,1,2.08-1.73h7.45a1.49,1.49,0,0,1,1.24.62l8.82,15.68a.44.44,0,0,0,.8-.14l2.61-14.43a2.19,2.19,0,0,1,2.07-1.73h5.85a1.43,1.43,0,0,1,1.45,1.74l-5,27.71a2.18,2.18,0,0,1-2.07,1.73h-6.46a1.49,1.49,0,0,1-1.24-.61l-9.6-16.89A.44.44,0,0,0,424.05,194.46Z" transform="translate(-20.33 -75.65)"/><path class="cls-1" d="M498,182.36l-.81,4.48a2.18,2.18,0,0,1-2.07,1.73h-8.61a.44.44,0,0,0-.42.35l-3.83,21.17a2.18,2.18,0,0,1-2.07,1.73h-5.88a1.41,1.41,0,0,1-1.45-1.73l3.82-21.17a.29.29,0,0,0-.29-.35h-8.61a1.42,1.42,0,0,1-1.45-1.73l.81-4.48a2.19,2.19,0,0,1,2.08-1.73h27.33A1.41,1.41,0,0,1,498,182.36Z" transform="translate(-20.33 -75.65)"/><path class="cls-1" d="M511,210.09l5-27.78a2.19,2.19,0,0,1,2.08-1.74h26.28a.86.86,0,0,1,.87,1l-1.07,5.89a1.31,1.31,0,0,1-1.25,1H524.68a.45.45,0,0,0-.42.35l-.58,3.22a.28.28,0,0,0,.29.34h14.7a.86.86,0,0,1,.87,1.05l-1,5.4a1.32,1.32,0,0,1-1.25,1H522.62a.45.45,0,0,0-.42.35l-.54,3a.29.29,0,0,0,.29.35h18.27a.85.85,0,0,1,.87,1l-1.1,6.1a1.31,1.31,0,0,1-1.25,1H512.46A1.42,1.42,0,0,1,511,210.09Z" transform="translate(-20.33 -75.65)"/><path class="cls-1" d="M559.36,210.09l5-27.76a2.19,2.19,0,0,1,2.07-1.73H588.7a6.66,6.66,0,0,1,6.8,8.15l-1.28,7.09A10.23,10.23,0,0,1,588.6,203a.38.38,0,0,0-.22.5l3.67,6.38a1.26,1.26,0,0,1-1.11,1.89c-3.06,0-5,.1-6.22.08-2.13,0-2.84-.06-3.23-.83l-3.35-6.55a.86.86,0,0,0-.8-.46h-7.12a.44.44,0,0,0-.41.35l-1,5.75a2.18,2.18,0,0,1-2.07,1.73h-5.89A1.42,1.42,0,0,1,559.36,210.09Zm12-14.27a.27.27,0,0,0,.29.34h11.5a2,2,0,0,0,1.85-1.54l.85-4.67a1.27,1.27,0,0,0-1.3-1.54H573a.44.44,0,0,0-.41.35Z" transform="translate(-20.33 -75.65)"/><path class="cls-1" d="M623.56,194.46l-2.82,15.63a2.18,2.18,0,0,1-2.08,1.73h-5.84a1.41,1.41,0,0,1-1.45-1.73l5-27.72a2.19,2.19,0,0,1,2.07-1.73h7.46a1.46,1.46,0,0,1,1.23.62L636,196.94a.44.44,0,0,0,.8-.14l2.6-14.43a2.19,2.19,0,0,1,2.08-1.73h5.84a1.43,1.43,0,0,1,1.45,1.74l-5,27.71a2.19,2.19,0,0,1-2.08,1.73H635.2a1.48,1.48,0,0,1-1.23-.61l-9.61-16.89A.44.44,0,0,0,623.56,194.46Z" transform="translate(-20.33 -75.65)"/><path class="cls-1" d="M661.73,209.66l18.06-27.38a4.26,4.26,0,0,1,3.68-1.61v0h0v0h2.19l2.19,0a2.28,2.28,0,0,1,2.13,1.59l8.92,27.38a1.68,1.68,0,0,1-.25,1.44,1.58,1.58,0,0,1-1.25.72h-7.12a1.08,1.08,0,0,1-1-.79l-.8-2.58H673.41l-.61.93L671.63,211a1.86,1.86,0,0,1-1.46.78h-7.52a1.21,1.21,0,0,1-1.15-.71A1.47,1.47,0,0,1,661.73,209.66ZM678.29,201h7.89l-2.56-8.13Z" transform="translate(-20.33 -75.65)"/><path class="cls-1" d="M746.22,182.36l-.81,4.48a2.18,2.18,0,0,1-2.07,1.73h-8.61a.44.44,0,0,0-.41.35l-3.83,21.17a2.19,2.19,0,0,1-2.08,1.73h-5.88a1.42,1.42,0,0,1-1.46-1.73l3.83-21.17a.28.28,0,0,0-.29-.35H716a1.41,1.41,0,0,1-1.45-1.73l.8-4.48a2.2,2.2,0,0,1,2.08-1.73h27.34A1.41,1.41,0,0,1,746.22,182.36Z" transform="translate(-20.33 -75.65)"/><path class="cls-1" d="M772.12,180.63a1.42,1.42,0,0,1,1.45,1.73l-5,27.73a2.18,2.18,0,0,1-2.07,1.73h-5.89a1.41,1.41,0,0,1-1.44-1.73l5-27.73a2.18,2.18,0,0,1,2.07-1.73Z" transform="translate(-20.33 -75.65)"/><path class="cls-1" d="M826.64,188.67l-2.71,15a10.27,10.27,0,0,1-9.75,8.13h-18a6.66,6.66,0,0,1-6.81-8.13l2.72-15a10.26,10.26,0,0,1,9.74-8.14h18A6.67,6.67,0,0,1,826.64,188.67Zm-9.62,1a.86.86,0,0,0-.88-1H802.6a1.31,1.31,0,0,0-1.25,1l-2.35,13a.85.85,0,0,0,.87,1h13.55a1.3,1.3,0,0,0,1.25-1Z" transform="translate(-20.33 -75.65)"/><path class="cls-1" d="M854.63,194.46l-2.82,15.63a2.2,2.2,0,0,1-2.08,1.73h-5.85a1.41,1.41,0,0,1-1.44-1.73l5-27.72a2.2,2.2,0,0,1,2.08-1.73H857a1.46,1.46,0,0,1,1.24.62L867,196.94a.44.44,0,0,0,.8-.14l2.61-14.43a2.19,2.19,0,0,1,2.07-1.73h5.85a1.43,1.43,0,0,1,1.45,1.74l-5,27.71a2.18,2.18,0,0,1-2.07,1.73h-6.45a1.5,1.5,0,0,1-1.25-.61l-9.6-16.89A.44.44,0,0,0,854.63,194.46Z" transform="translate(-20.33 -75.65)"/><path class="cls-1" d="M892.79,209.66l18.07-27.38c.91-1.24,2.09-1.54,3.68-1.61v0h0v0h2.19l2.2,0a2.26,2.26,0,0,1,2.12,1.59L930,209.66a1.68,1.68,0,0,1-.25,1.44,1.59,1.59,0,0,1-1.25.72h-7.12a1.09,1.09,0,0,1-1-.79l-.79-2.58H904.48l-.61.93L902.7,211a1.86,1.86,0,0,1-1.47.78h-7.51a1.22,1.22,0,0,1-1.16-.71A1.52,1.52,0,0,1,892.79,209.66ZM909.35,201h7.9l-2.57-8.13Z" transform="translate(-20.33 -75.65)"/><path class="cls-1" d="M954.88,180.63h5.88a1.42,1.42,0,0,1,1.45,1.73l-3.66,20.25a.84.84,0,0,0,.87,1h14.33a1.42,1.42,0,0,1,1.45,1.73l-.85,4.71a2.18,2.18,0,0,1-2.07,1.73h-23a1.41,1.41,0,0,1-1.45-1.73l5-27.73A2.18,2.18,0,0,1,954.88,180.63Z" transform="translate(-20.33 -75.65)"/><path class="cls-1" d="M241.37,107.09a43,43,0,0,1,7.27-14.32A53.42,53.42,0,0,1,264.71,79a46.63,46.63,0,0,0-13.07-1.75H173.08v31.39h67.85A15.7,15.7,0,0,1,241.37,107.09Z" transform="translate(-20.33 -75.65)"/><path class="cls-1" d="M346.17,171.88A49.6,49.6,0,0,0,332.67,156a96.85,96.85,0,0,0-21.27-12.52c-3.72-1.75-7.16-3.23-10.17-4.43-1.42-.6-2.79-1.2-4.15-1.8a101.6,101.6,0,0,1-10.88-5.47q-6.07-3.52-6.07-10.17v-.22a12,12,0,0,1,5.9-10.17,23.08,23.08,0,0,1,9.79-3.44,30.88,30.88,0,0,1,3.23-.17h1a42.06,42.06,0,0,1,15.09,3.67c5.58,2.4,8.64,4,9.19,4.81l14.27-26.41a43.67,43.67,0,0,0-7.88-5.74q-12.37-7.62-30.18-8.26h-1.86a62.65,62.65,0,0,0-25.42,5.2c-.55.22-1.09.49-1.64.76A48.89,48.89,0,0,0,253,96.1a37.11,37.11,0,0,0-6.4,12.58A38.93,38.93,0,0,0,245,118.9v1.7a37.2,37.2,0,0,0,4.15,17.93,16,16,0,0,0,1,1.58A49.11,49.11,0,0,0,261.92,153a84.47,84.47,0,0,0,16.68,10.06l.65.33a3.06,3.06,0,0,1,.66.27c5.47,2.51,10.72,5.19,15.8,8a84.89,84.89,0,0,1,13.18,8.75c3.72,3.11,5.63,6.67,5.63,10.77v.49c-.17,5.09-2.63,8.59-7.38,10.55-12.64,5.23-27.78,3.09-38.9-4.69a58,58,0,0,1-12.47-12.16c-1.78-2.3-3.63-4.3-5.54-6.49-.94-1.07-5.16-7.33-6.4-7.33h7.81a45.46,45.46,0,0,0,21.49-5.08,88.92,88.92,0,0,1-14.6-9.13,56.8,56.8,0,0,1-12.84-14.11c-.39-.6-.77-1.2-1.15-1.86a8.13,8.13,0,0,1-.6-1.26H173.08v94.26h31.44V175.49c9.67,10.72,19.23,21.54,28.89,32.28,7.79,8.65,15,16.4,25.64,21.68,10,5,20.71,7,31.74,7.38h2.57a70.75,70.75,0,0,0,26.68-5,52.91,52.91,0,0,0,21.65-15.58q8.28-10.17,8.75-24.55v-1.09A40.5,40.5,0,0,0,346.17,171.88Z" transform="translate(-20.33 -75.65)"/><path class="cls-2" d="M70.21,147.29c.39-.06.79-.06,1.18-.09H93.64c.4,0,.8,0,1.19.09a8.31,8.31,0,0,1,2.29.64A8.71,8.71,0,0,1,96,164.31c-.39.11-.78.17-1.17.25l-1.19.08H71.39a8.5,8.5,0,0,1-2.35-.33,8.76,8.76,0,0,1-2.18-.94,8.72,8.72,0,0,1,3.35-16.08Z" transform="translate(-20.33 -75.65)"/><path class="cls-2" d="M27.85,217a11.69,11.69,0,0,1,1.19-.08H51.29c.39,0,.79,0,1.19.08a8.71,8.71,0,0,1,2.28.64,8.72,8.72,0,0,1-1.12,16.39c-.38.1-.78.16-1.16.24l-1.19.08H29a8.88,8.88,0,0,1-2.35-.32,8.64,8.64,0,0,1-2.18-1A8.71,8.71,0,0,1,27.85,217Z" transform="translate(-20.33 -75.65)"/><path class="cls-2" d="M47.38,164.31c-.38.11-.78.17-1.17.25l-1.18.08H33a8.5,8.5,0,0,1-2.35-.33,8.61,8.61,0,0,1-2.18-.94,8.71,8.71,0,0,1,3.34-16.08c.39-.06.79-.06,1.19-.09H45c.39,0,.79,0,1.18.09a8.31,8.31,0,0,1,2.29.64,8.71,8.71,0,0,1-1.12,16.38Z" transform="translate(-20.33 -75.65)"/><path class="cls-2" d="M90.88,94.4c-.38.11-.77.17-1.16.25l-1.19.08h-12a8.5,8.5,0,0,1-2.35-.33A8.76,8.76,0,0,1,72,93.46a8.72,8.72,0,0,1,3.35-16.08c.39-.06.79-.06,1.18-.09h12c.4,0,.8,0,1.19.09A8.31,8.31,0,0,1,92,78,8.71,8.71,0,0,1,90.88,94.4Z" transform="translate(-20.33 -75.65)"/><path class="cls-1" d="M117.77,77.29c-.4,0-.8,0-1.19.09a8.71,8.71,0,0,0-3.34,16.08,8.82,8.82,0,0,0,4.53,1.27h22c.4,0,.8,0,1.19.08a8.6,8.6,0,0,1,2.28.64,8.71,8.71,0,0,1-1.12,16.39c-.29.08-.59.13-.89.19l-1.45.13H65.32c-.4,0-.79,0-1.19.08a8.87,8.87,0,0,0-6.77,5.37h0a7.41,7.41,0,0,0-.57,1.48,6.79,6.79,0,0,0,0,.78,9.83,9.83,0,0,0,0,1.09,10.05,10.05,0,0,0,0,1.09,6.74,6.74,0,0,0,0,.77,7.41,7.41,0,0,0,.57,1.48h0a8.85,8.85,0,0,0,6.77,5.37c.4.05.79.05,1.19.08h74.41l1.45.14a8.76,8.76,0,0,1,.89.18,8.71,8.71,0,0,1,1.12,16.39,8.6,8.6,0,0,1-2.28.64,11.69,11.69,0,0,1-1.19.08h-22a9,9,0,0,0-2.36.33,8.7,8.7,0,0,0-2.17.94,8.72,8.72,0,0,0,3.34,16.09c.39.05.79.05,1.19.08h31.61a11.69,11.69,0,0,1,1.19.08,8.6,8.6,0,0,1,2.28.64,8.71,8.71,0,0,1-1.12,16.39c-.29.08-.59.13-.89.19l-1.45.13H29c-.4,0-.8,0-1.19.08a8.72,8.72,0,0,0-3.34,16.09,8.61,8.61,0,0,0,2.18.94,8.49,8.49,0,0,0,2.35.32H129c.39,0,.79,0,1.18.09a8.31,8.31,0,0,1,2.29.64,8.71,8.71,0,0,1-1.12,16.38,6.71,6.71,0,0,1-.89.19l-1.45.14H88.53c-.39,0-.79,0-1.19.08A8.72,8.72,0,0,0,84,233.1a8.64,8.64,0,0,0,2.18,1,8.88,8.88,0,0,0,2.35.32h79.63V77.29Z" transform="translate(-20.33 -75.65)"/><rect class="cls-1" x="152.75" y="15.58" width="31.44" height="60.78"/></svg>